<svg width="33" height="32" viewBox="0 0 33 32" fill="none" xmlns="http://www.w3.org/2000/svg">
<circle cx="16.997" cy="15.999" r="15.999" fill="#11112D"/>
<path d="M19.6973 8.4375C20.8627 8.75092 21.9253 9.36507 22.7786 10.2184C23.632 11.0718 24.2461 12.1344 24.5595 13.2998" stroke="#FEDC00" stroke-width="1.5" stroke-linecap="round" stroke-linejoin="round"/>
<path d="M18.9854 11.0938C19.6846 11.2818 20.3222 11.6503 20.8343 12.1624C21.3463 12.6744 21.7148 13.312 21.9029 14.0113" stroke="#FEDC00" stroke-width="1.5" stroke-linecap="round" stroke-linejoin="round"/>
<path d="M13.9449 15.7254C14.658 17.1832 15.8398 18.3596 17.3009 19.066C17.4078 19.1167 17.526 19.1386 17.644 19.1297C17.7619 19.1208 17.8755 19.0813 17.9736 19.0151L20.125 17.5806C20.2201 17.5171 20.3296 17.4784 20.4435 17.468C20.5574 17.4575 20.672 17.4756 20.7772 17.5207L24.802 19.2456C24.9387 19.3036 25.0528 19.4046 25.1272 19.5332C25.2016 19.6618 25.2321 19.811 25.2143 19.9585C25.0871 20.954 24.6014 21.8689 23.8482 22.532C23.0949 23.1952 22.1258 23.561 21.1223 23.561C18.0228 23.561 15.0502 22.3298 12.8585 20.1381C10.6668 17.9464 9.43555 14.9738 9.43555 11.8743C9.4356 10.8708 9.80144 9.90166 10.4646 9.14843C11.1277 8.39521 12.0426 7.90952 13.0381 7.78231C13.1855 7.76446 13.3348 7.79502 13.4634 7.86939C13.592 7.94376 13.6929 8.05791 13.751 8.19463L15.4774 12.2229C15.5221 12.3271 15.5403 12.4408 15.5304 12.5537C15.5205 12.6666 15.4829 12.7753 15.4208 12.8702L13.9912 15.0546C13.9261 15.1528 13.8877 15.2663 13.8795 15.3839C13.8714 15.5014 13.894 15.6191 13.9449 15.7254V15.7254Z" stroke="#FEDC00" stroke-width="1.5" stroke-linecap="round" stroke-linejoin="round"/>
</svg>
